<svg width="29" height="28" viewBox="0 0 29 28" fill="none" xmlns="http://www.w3.org/2000/svg">
<path d="M16 14C16 15.0609 15.5786 16.0783 14.8284 16.8284C14.0783 17.5786 13.0609 18 12 18C10.9391 18 9.92172 17.5786 9.17157 16.8284C8.42143 16.0783 8 15.0609 8 14M6 6L3 10V24C3 25.1 3.9 26 5 26H19C19.5304 26 20.0391 25.7893 20.4142 25.4142C20.7893 25.0391 21 24.5304 21 24V10L18 6H6ZM3.8 10H20.2H3.8Z" stroke="#2B2D42" stroke-width="2" stroke-linecap="round" stroke-linejoin="round"/>
<circle cx="21" cy="8" r="8" fill="#E65F76"/>
<path d="M22.51 11H20.83V5.8L19.51 6.82L18.64 5.63L20.97 3.92H22.51V11Z" fill="white"/>
</svg>
