<svg width="40" height="20" viewBox="0 0 40 20" fill="none" xmlns="http://www.w3.org/2000/svg">
<rect width="40" height="20" fill="#E65F76"/>
<path d="M15.292 14H13.24V10.448H9.928V14H7.876V5.504H9.928V8.72H13.24V5.504H15.292V14ZM25.8961 9.716C25.8961 11.052 25.4601 12.14 24.5881 12.98C23.7161 13.812 22.6081 14.228 21.2641 14.228C19.9281 14.228 18.8241 13.812 17.9521 12.98C17.0801 12.14 16.6441 11.052 16.6441 9.716C16.6441 8.372 17.0761 7.296 17.9401 6.488C18.8121 5.68 19.9201 5.276 21.2641 5.276C22.6161 5.276 23.7241 5.68 24.5881 6.488C25.4601 7.296 25.8961 8.372 25.8961 9.716ZM23.7001 9.716C23.7001 8.964 23.4721 8.344 23.0161 7.856C22.5601 7.368 21.9761 7.124 21.2641 7.124C20.5521 7.124 19.9681 7.368 19.5121 7.856C19.0641 8.344 18.8401 8.964 18.8401 9.716C18.8401 10.484 19.0641 11.116 19.5121 11.612C19.9681 12.108 20.5521 12.356 21.2641 12.356C21.9761 12.356 22.5601 12.108 23.0161 11.612C23.4721 11.116 23.7001 10.484 23.7001 9.716ZM32.9198 7.256H30.5198V14H28.4678V7.256H26.0678V5.504H32.9198V7.256Z" fill="white"/>
</svg>
