<svg width="126" height="40" viewBox="0 0 126 40" fill="none" xmlns="http://www.w3.org/2000/svg">
<g clip-path="url(#clip0)">
<path d="M2.29467 25.7179C0.76489 24.7523 0 23.2727 0 21.2915C0 20.2382 0.175549 19.4357 0.539185 18.884C0.902821 18.3323 1.44201 18.0564 2.1442 18.0564C2.65831 18.0564 3.08464 18.1944 3.41066 18.4577C3.73668 18.721 3.89969 19.0721 3.89969 19.4859C3.89969 19.8621 3.87461 20.2006 3.81191 20.489C3.81191 20.5643 3.79937 20.7022 3.77429 20.8903C3.74922 21.0784 3.73668 21.279 3.73668 21.4922C3.73668 22.3574 4.17555 22.9969 5.04075 23.4107C5.90596 23.837 7.12226 24.0376 8.68966 24.0376C10.3072 24.0376 11.5862 23.7492 12.5016 23.1599C13.4169 22.5831 13.8809 21.7555 13.8809 20.7147C13.8809 20.0627 13.6677 19.511 13.2539 19.0345C12.8276 18.5705 12.3135 18.1693 11.674 17.8558C11.047 17.5423 10.1567 17.1536 9.01567 16.6897C7.54859 16.1128 6.34483 15.5737 5.41693 15.0596C4.48903 14.5454 3.69906 13.8433 3.03448 12.953C2.36991 12.0627 2.04389 10.9592 2.04389 9.64263C2.04389 8.26332 2.40752 7.04702 3.14734 5.98119C3.88715 4.91536 4.94044 4.07523 6.33229 3.48589C7.7116 2.89655 9.34169 2.59561 11.2226 2.59561C12.6144 2.59561 13.8934 2.79624 15.0596 3.21003C16.2257 3.62382 17.1536 4.25078 17.8558 5.09091C18.558 5.93103 18.8966 6.95925 18.8966 8.18809C18.8966 9.39185 18.721 10.2947 18.3574 10.9091C17.9937 11.5235 17.4545 11.8244 16.7524 11.8244C16.2508 11.8244 15.837 11.674 15.511 11.3605C15.1724 11.0596 15.0094 10.6959 15.0094 10.2696C15.0094 9.90595 15.0345 9.5674 15.0972 9.26646C15.1599 8.68965 15.185 8.32602 15.185 8.17555C15.185 7.37304 14.7962 6.75862 14.0063 6.34483C13.2288 5.93103 12.2508 5.71787 11.0846 5.71787C9.44201 5.71787 8.18809 6.01881 7.32288 6.62069C6.45768 7.22257 6.01881 8.06269 6.01881 9.1536C6.01881 9.88087 6.24451 10.4953 6.69593 11.0219C7.14734 11.536 7.69906 11.9624 8.37618 12.3135C9.04075 12.652 9.98119 13.0658 11.185 13.5423C12.6395 14.1317 13.8056 14.6708 14.6834 15.1473C15.5611 15.6238 16.3135 16.2759 16.9279 17.0909C17.5423 17.9185 17.8558 18.9216 17.8558 20.1254C17.8558 22.3824 17.0031 24.1128 15.2978 25.3291C13.5925 26.5454 11.2978 27.1473 8.43887 27.1473C5.8558 27.1599 3.82445 26.6708 2.29467 25.7179Z" fill="#2B2D42"/>
<path d="M36.4514 20.8903C36.5893 21.116 36.6646 21.4295 36.6646 21.8307C36.6646 22.5956 36.489 23.185 36.1254 23.6113C35.2477 24.627 34.3448 25.4545 33.4169 26.1066C32.489 26.7586 31.4357 27.0846 30.2571 27.0846C29.279 27.0846 28.5517 26.8088 28.0502 26.2445C27.5486 25.6803 27.3103 24.8652 27.3103 23.7994C27.3103 23.2602 27.4483 22.3072 27.7116 20.9404C27.9624 19.7367 28.0878 18.9091 28.0878 18.4451C28.0878 18.1442 27.9875 17.9812 27.7743 17.9812C27.5235 17.9812 27.1724 18.3072 26.7085 18.9467C26.2445 19.5862 25.7931 20.4263 25.3292 21.4796C24.8652 22.5329 24.5016 23.6364 24.2132 24.8025C23.8495 26.3323 22.9467 27.0972 21.5172 27.0972C20.9404 27.0972 20.5643 26.8966 20.3887 26.4828C20.2132 26.069 20.1129 25.3292 20.1129 24.2633C20.1129 23.6489 20.1254 23.1599 20.1379 22.7962L20.163 20.5016C20.163 17.5549 20.464 14.4953 21.0658 11.3103C21.6677 8.12539 22.558 5.44201 23.7241 3.27273C24.9154 1.07837 26.3198 0 27.9624 0C28.8401 0 29.5549 0.376176 30.094 1.12853C30.6332 1.88088 30.9091 2.85893 30.9091 4.0627C30.9091 5.99373 30.3448 7.98746 29.2163 10.069C28.0878 12.1379 26.2571 14.558 23.7116 17.3292C23.6489 18.3197 23.6238 19.348 23.6238 20.3887C24.2508 18.7712 24.953 17.442 25.7304 16.4263C26.5078 15.4107 27.2727 14.6708 28.0251 14.232C28.7774 13.7931 29.4671 13.5674 30.1066 13.5674C31.348 13.5674 31.9749 14.1944 31.9749 15.4357C31.9749 16.1755 31.7618 17.5298 31.348 19.4734C30.9843 21.1411 30.8088 22.232 30.8088 22.7712C30.8088 23.5361 31.0846 23.9122 31.6364 23.9122C32.0125 23.9122 32.4765 23.674 33.0031 23.21C33.5298 22.7461 34.232 21.9812 35.1097 20.9279C35.3354 20.6646 35.5988 20.5266 35.8872 20.5266C36.1129 20.5392 36.3135 20.652 36.4514 20.8903ZM26.2194 4.31348C25.7931 5.29154 25.3919 6.62069 25.0031 8.30094C24.6144 9.96865 24.2884 11.7868 24.0376 13.7555C25.2163 12.3636 26.2069 10.8464 26.9718 9.20376C27.7492 7.56113 28.1379 6.06897 28.1379 4.73981C28.1379 4.12539 28.0752 3.66144 27.9373 3.33542C27.7994 3.0094 27.6113 2.8464 27.3605 2.8464C27.0094 2.83386 26.6332 3.32288 26.2194 4.31348Z" fill="#2B2D42"/>
<path d="M49.5298 18.5078C49.6677 18.7586 49.7304 19.0721 49.7304 19.4483C49.7304 20.3636 49.4545 20.9154 48.9028 21.0784C47.7618 21.4796 46.4953 21.7053 45.116 21.768C44.7523 23.373 44.0376 24.652 42.9718 25.6176C41.906 26.5831 40.6897 27.0596 39.3354 27.0596C38.1944 27.0596 37.2163 26.7837 36.4012 26.232C35.5862 25.6803 34.9718 24.9404 34.558 24.0251C34.1317 23.1097 33.931 22.1191 33.931 21.0408C33.931 19.5862 34.2069 18.2947 34.7586 17.1536C35.3103 16.0125 36.0752 15.1348 37.0533 14.4953C38.0313 13.8558 39.1097 13.5298 40.2884 13.5298C41.7429 13.5298 42.9091 14.0314 43.7994 15.0345C44.6897 16.0376 45.2038 17.279 45.3668 18.7461C46.2696 18.6834 47.3354 18.4953 48.5768 18.1693C48.7273 18.1317 48.8652 18.1066 48.9781 18.1066C49.2038 18.1317 49.4044 18.2571 49.5298 18.5078ZM41.1536 23.2853C41.605 22.7837 41.906 22.069 42.0564 21.1411C41.4671 20.7398 41.0157 20.2132 40.6897 19.5611C40.3762 18.9091 40.2132 18.2194 40.2132 17.4922C40.2132 17.1912 40.2382 16.8777 40.3009 16.5768H40.163C39.3981 16.5768 38.7586 16.9404 38.2571 17.6803C37.7555 18.4201 37.4922 19.4483 37.4922 20.79C37.4922 21.8433 37.6928 22.6458 38.1066 23.1975C38.5204 23.7492 38.9969 24.0251 39.5486 24.0251C40.1755 24.0376 40.7022 23.7868 41.1536 23.2853Z" fill="#2B2D42"/>
<path d="M63.1599 20.8903C63.2978 21.116 63.373 21.4295 63.373 21.8307C63.373 22.5956 63.1975 23.185 62.8338 23.6113C62.0062 24.627 61.1285 25.4545 60.1881 26.1066C59.2476 26.7586 58.1693 27.0846 56.9655 27.0846C55.9498 27.0846 55.1348 26.721 54.5078 25.9937C53.4169 26.6959 52.2884 27.0596 51.0972 27.0846C50.8464 30.7712 50.2821 33.8558 49.4044 36.326C48.5266 38.7962 47.2351 40.0376 45.5423 40.0376C44.5141 40.0376 43.7492 39.6614 43.2476 38.9216C42.7461 38.1818 42.5078 37.1411 42.5078 35.8245C42.5078 33.9561 42.9341 31.7743 43.7993 29.279C44.6646 26.7837 45.9812 24.0376 47.7868 21.0408C47.7868 18.2571 47.7617 16.3135 47.7241 15.2226C47.699 14.6708 47.9247 14.232 48.3887 13.906C48.8526 13.5799 49.4169 13.4169 50.1066 13.4169C50.5078 13.4169 50.7962 13.4922 50.9843 13.6552C51.1599 13.8182 51.2602 14.1317 51.2852 14.6207C51.2852 15.0972 51.2978 15.4483 51.3103 15.6865C51.9247 14.9216 52.5266 14.3699 53.116 14.0439C53.7053 13.7053 54.3323 13.5423 55.0094 13.5423C56.0752 13.5423 56.953 13.9687 57.6301 14.8339C58.3072 15.6991 58.6457 16.8151 58.6457 18.2194C58.6457 19.2351 58.4827 20.2132 58.1567 21.1661C57.8307 22.1191 57.3793 22.9843 56.815 23.7743C57.2163 23.8872 57.5548 23.9498 57.8182 23.9498C58.4451 23.9498 59.047 23.7241 59.6238 23.2602C60.2006 22.7962 60.9279 22.0439 61.8307 20.9655C62.0564 20.7022 62.3197 20.5643 62.6081 20.5643C62.8213 20.5392 63.0094 20.652 63.1599 20.8903ZM47.0345 33.8433C47.373 31.5987 47.5987 28.8025 47.699 25.4671C46.8714 27.373 46.232 29.2038 45.7555 30.9342C45.279 32.6771 45.0407 34.1317 45.0407 35.3229C45.0407 35.9373 45.116 36.4013 45.2539 36.7273C45.3918 37.0533 45.5674 37.2163 45.7555 37.2163C46.2696 37.2163 46.6959 36.0878 47.0345 33.8433ZM53.1285 23.185C53.7053 22.5831 54.1693 21.8433 54.5204 20.953C54.8589 20.0627 55.0345 19.1348 55.0345 18.1567C55.0345 17.5799 54.9216 17.1536 54.6959 16.8527C54.4702 16.5517 54.1567 16.4138 53.7805 16.4138C53.0909 16.4138 52.2633 17.1411 51.2852 18.5956C51.2602 19.4357 51.2602 20.6646 51.2602 22.2947C51.2602 23.1724 51.2476 23.8495 51.2351 24.326C51.9122 24.1756 52.5392 23.7868 53.1285 23.185Z" fill="#2B2D42"/>
<path d="M61.8683 25.7555C61.3041 24.8777 61.0282 23.7116 61.0282 22.257C61.0282 21.3918 61.141 20.2884 61.3542 18.9467C61.5674 17.605 61.8558 16.3385 62.1943 15.1849C62.3699 14.5705 62.5956 14.1567 62.884 13.9185C63.1724 13.6928 63.6238 13.5799 64.2633 13.5799C65.2414 13.5799 65.7304 13.9059 65.7304 14.558C65.7304 15.0345 65.5423 16.1379 65.1912 17.8809C64.7273 19.9875 64.5016 21.4044 64.5016 22.1442C64.5016 22.721 64.5768 23.1599 64.7273 23.4608C64.8777 23.7617 65.1411 23.9248 65.5047 23.9248C65.8432 23.9248 66.2821 23.6865 66.7962 23.21C67.3103 22.7335 68 21.9812 68.8652 20.953C69.0909 20.6896 69.3542 20.5517 69.6426 20.5517C69.8934 20.5517 70.0815 20.6646 70.232 20.8903C70.3699 21.116 70.4451 21.4295 70.4451 21.8307C70.4451 22.5956 70.2696 23.1849 69.9059 23.6113C68.0125 25.9185 66.2445 27.0721 64.6019 27.0721C63.3354 27.0721 62.4326 26.6332 61.8683 25.7555ZM62.9968 11.1348C62.5956 10.7586 62.395 10.2445 62.395 9.5674C62.395 8.90282 62.6583 8.33856 63.1849 7.88715C63.7116 7.43573 64.3636 7.21003 65.1411 7.21003C65.8432 7.21003 66.4201 7.38558 66.8589 7.72414C67.2978 8.06269 67.5235 8.55172 67.5235 9.19122C67.5235 9.95611 67.2727 10.558 66.7837 11.0094C66.2821 11.4608 65.6301 11.6865 64.8025 11.6865C64 11.6865 63.3981 11.4984 62.9968 11.1348Z" fill="#53CD8B"/>
<path d="M81.4546 20.8903C81.5925 21.116 81.6677 21.4295 81.6677 21.8307C81.6677 22.5956 81.4922 23.185 81.1285 23.6113C80.301 24.627 79.4107 25.4545 78.4326 26.1066C77.4546 26.7586 76.3386 27.0846 75.0847 27.0846C71.185 27.0846 69.2414 24.3386 69.2414 18.8589C69.2414 18.0188 69.2665 17.1661 69.3292 16.3135H68.2132C67.6364 16.3135 67.2477 16.2132 67.047 16C66.8464 15.7868 66.7461 15.4608 66.7461 14.9969C66.7461 13.931 67.1724 13.3918 68.0376 13.3918H69.6677C69.9937 11.2853 70.4828 9.36677 71.1599 7.63636C71.8245 5.89342 72.6395 4.51411 73.5799 3.48589C74.5204 2.45768 75.5486 1.94357 76.627 1.94357C77.4295 1.94357 78.0564 2.29467 78.5204 3.0094C78.9843 3.7116 79.21 4.60188 79.21 5.66771C79.21 8.62696 77.9687 11.21 75.4859 13.4044H78.6959C78.9969 13.4044 79.2226 13.4671 79.3605 13.605C79.4985 13.7429 79.5611 13.9812 79.5611 14.3448C79.5611 15.6614 78.4828 16.326 76.326 16.326H72.8276C72.79 17.279 72.7649 18.0313 72.7649 18.558C72.7649 20.5392 73.0032 21.9436 73.4671 22.7461C73.9311 23.5486 74.6709 23.9498 75.6865 23.9498C76.5016 23.9498 77.2289 23.6991 77.8684 23.21C78.4953 22.7085 79.2477 21.9687 80.1003 20.9781C80.326 20.7147 80.5894 20.5768 80.8778 20.5768C81.116 20.5392 81.3166 20.652 81.4546 20.8903ZM74.8966 5.74295C74.5455 6.45768 74.2069 7.44827 73.8934 8.72727C73.5799 9.99373 73.3166 11.4107 73.1035 12.953C74.232 11.9749 75.0721 10.884 75.6364 9.66771C76.2006 8.45141 76.4765 7.34796 76.4765 6.35737C76.4765 5.22884 76.2633 4.66458 75.8495 4.66458C75.5737 4.66458 75.2477 5.02821 74.8966 5.74295Z" fill="#DADADC"/>
<path d="M80 25.7806C79.3229 24.9154 78.9843 23.7994 78.9843 22.395C78.9843 20.8652 79.3354 19.4232 80.0501 18.0564C80.7523 16.6897 81.6928 15.5987 82.8715 14.7586C84.0501 13.931 85.2915 13.5172 86.6081 13.5172C87.0219 13.5172 87.3103 13.5925 87.4483 13.7555C87.5862 13.9185 87.7116 14.2069 87.8119 14.6332C88.1755 14.558 88.5768 14.5204 89.0157 14.5204C89.4796 14.5204 89.8307 14.6332 90.0815 14.8589C90.3323 15.0846 90.4577 15.4107 90.4577 15.837C90.4577 16.2759 90.3573 17.0408 90.1693 18.1317C89.9561 19.2978 89.7931 20.4138 89.6802 21.4671C89.5674 22.5329 89.5047 23.7116 89.5047 25.0282C89.5047 25.7555 89.3542 26.2696 89.0658 26.5956C88.7649 26.9091 88.2884 27.0721 87.6238 27.0721C86.9718 27.0721 86.4953 26.9091 86.1818 26.5956C85.8683 26.2821 85.7053 25.768 85.7053 25.0658L85.7304 24.6019C85.1411 26.2445 84.1128 27.0596 82.6708 27.0596C81.5548 27.0721 80.6771 26.6458 80 25.7806ZM85.2288 23.0596C85.6677 22.3197 86.0564 20.9906 86.4075 19.0721L86.9467 16.1755C86.1693 16.2006 85.442 16.5016 84.7649 17.0784C84.1003 17.6552 83.5611 18.4326 83.1599 19.3856C82.7586 20.3386 82.558 21.3542 82.558 22.4201C82.558 22.9969 82.6708 23.4232 82.884 23.7241C83.0972 24.0251 83.3981 24.163 83.7617 24.163C84.3009 24.1755 84.79 23.8119 85.2288 23.0596Z" fill="#E65F76"/>
<path d="M92.5517 26.3825C92.1254 25.9185 91.9122 25.3166 91.9122 24.5768C91.9122 23.7116 92.1505 23.0345 92.6395 22.5078C93.1285 21.9937 93.8056 21.7304 94.6834 21.7304C95.5235 21.7304 96.163 21.931 96.5894 22.3448C97.0157 22.7586 97.2289 23.3605 97.2289 24.163C97.2289 25.0408 96.9781 25.743 96.489 26.2696C95.9875 26.7962 95.3104 27.0596 94.4577 27.0596C93.605 27.0721 92.9781 26.8464 92.5517 26.3825Z" fill="#2B2D42"/>
<path d="M116.414 20.8903C116.552 21.116 116.627 21.4295 116.627 21.8307C116.627 22.5956 116.439 23.1849 116.088 23.6113C115.222 24.6646 114.357 25.5047 113.48 26.1316C112.602 26.7586 111.561 27.0721 110.357 27.0721C108.89 27.0721 107.699 26.6583 106.809 25.8056C105.906 24.9655 105.467 23.8495 105.467 22.4577C105.467 21.7179 105.843 21.1787 106.608 20.8527C107.448 20.489 108.05 20.1003 108.414 19.6865C108.777 19.2727 108.953 18.7712 108.953 18.1818C108.953 17.8433 108.878 17.5799 108.74 17.4044C108.602 17.2288 108.414 17.1411 108.213 17.1411C107.699 17.1411 107.135 17.5172 106.508 18.257C105.881 18.9969 105.304 19.9624 104.777 21.1411C104.238 22.3197 103.824 23.5235 103.511 24.7649C103.298 25.6677 103.059 26.2696 102.784 26.5831C102.508 26.8965 102.069 27.0595 101.48 27.0595C100.89 27.0595 100.451 26.8464 100.175 26.42C99.8996 25.9937 99.7115 25.3291 99.6112 24.4263C99.5109 23.5235 99.4733 22.2069 99.4733 20.4765C99.4733 17.5298 99.7742 14.4702 100.376 11.2853C100.978 8.10031 101.868 5.41692 103.034 3.24765C104.201 1.07837 105.617 0 107.26 0C108.138 0 108.853 0.376175 109.392 1.12853C109.931 1.88088 110.207 2.85893 110.207 4.06269C110.207 5.99373 109.643 7.98746 108.514 10.069C107.385 12.1379 105.555 14.558 103.009 17.3291C102.947 18.3197 102.922 19.348 102.922 20.3887C103.837 18.0063 104.89 16.2633 106.069 15.1849C107.248 14.1066 108.364 13.5674 109.392 13.5674C110.345 13.5674 111.11 13.8934 111.699 14.5454C112.276 15.1975 112.577 16 112.577 16.953C112.577 18.0063 112.313 18.9718 111.774 19.8495C111.235 20.7273 110.32 21.5172 109.028 22.1943C109.103 22.7085 109.342 23.1222 109.73 23.4357C110.119 23.7492 110.596 23.9122 111.147 23.9122C111.737 23.9122 112.313 23.6865 112.865 23.2226C113.417 22.7586 114.144 22.0063 115.047 20.9279C115.273 20.6646 115.536 20.5266 115.824 20.5266C116.075 20.5392 116.263 20.652 116.414 20.8903ZM105.505 4.31348C105.078 5.29153 104.677 6.62069 104.288 8.30094C103.9 9.96865 103.574 11.7868 103.323 13.7555C104.501 12.3636 105.48 10.8464 106.257 9.20376C107.034 7.56112 107.423 6.06896 107.423 4.73981C107.423 4.12539 107.36 3.66144 107.222 3.33542C107.085 3.0094 106.896 2.84639 106.646 2.84639C106.307 2.83385 105.931 3.32288 105.505 4.31348Z" fill="#2B2D42"/>
<path d="M125.066 24.2508C125.279 24.5643 125.392 24.953 125.392 25.4169C125.392 25.8934 125.279 26.3197 125.066 26.6834C124.84 27.047 124.539 27.2226 124.163 27.2226C123.473 27.2226 122.834 27.21 122.232 27.1975C121.63 27.1724 121.103 27.1599 120.64 27.1348C118.884 27.0596 117.643 27.0219 116.915 27.0219C116.665 27.0219 116.301 27.1097 115.824 27.2853C115.21 27.4734 114.796 27.5737 114.558 27.5737C113.542 27.5737 113.041 26.9216 113.041 25.6301C113.041 24.7523 113.354 23.7492 113.981 22.6332C114.608 21.5172 115.436 20.4263 116.439 19.3856C117.455 18.3323 118.508 17.4545 119.586 16.7523L115.549 16.8652C115.122 16.8903 114.809 16.7398 114.583 16.4263C114.357 16.1129 114.257 15.7367 114.257 15.2978C114.257 14.8339 114.37 14.4326 114.583 14.0815C114.796 13.7304 115.097 13.5549 115.486 13.5549C116.326 13.5549 117.367 13.6176 118.608 13.7555C118.821 13.7806 119.273 13.8182 119.975 13.8683C120.677 13.931 121.317 13.9561 121.906 13.9561C122.094 13.9561 122.458 13.8809 122.997 13.7304C123.097 13.7053 123.273 13.6677 123.561 13.5925C123.837 13.5172 124.075 13.4796 124.263 13.4796C124.564 13.4796 124.828 13.6176 125.028 13.8809C125.229 14.1442 125.329 14.558 125.329 15.1097C125.329 15.7241 125.179 16.2132 124.89 16.5768C124.589 16.9404 124.15 17.2665 123.561 17.5549C122.897 17.8558 122.107 18.3824 121.216 19.1348C120.314 19.8746 119.473 20.7022 118.671 21.6176C117.868 22.5204 117.279 23.3856 116.89 24.1755L124.113 23.8621C124.527 23.7868 124.84 23.9373 125.066 24.2508Z" fill="#2B2D42"/>
</g>
<defs>
<clipPath id="clip0">
<rect width="125.392" height="40" fill="white"/>
</clipPath>
</defs>
</svg>
