<svg width="110" height="35" viewBox="0 0 110 35" fill="none" xmlns="http://www.w3.org/2000/svg">
<g clip-path="url(#clip0)">
<path d="M2.00784 22.5031C0.669279 21.6583 0 20.3636 0 18.6301C0 17.7085 0.153605 17.0063 0.471787 16.5235C0.789969 16.0407 1.26176 15.7994 1.87618 15.7994C2.32602 15.7994 2.69906 15.9201 2.98433 16.1505C3.26959 16.3809 3.41223 16.6881 3.41223 17.0501C3.41223 17.3793 3.39028 17.6755 3.33542 17.9279C3.33542 17.9937 3.32445 18.1144 3.30251 18.279C3.28056 18.4436 3.26959 18.6191 3.26959 18.8056C3.26959 19.5627 3.6536 20.1222 4.41066 20.4843C5.16771 20.8574 6.23198 21.0329 7.60345 21.0329C9.01881 21.0329 10.1379 20.7806 10.9389 20.2649C11.7398 19.7602 12.1458 19.036 12.1458 18.1254C12.1458 17.5549 11.9592 17.0721 11.5972 16.6552C11.2241 16.2492 10.7743 15.8981 10.2147 15.6238C9.66614 15.3495 8.88715 15.0094 7.88871 14.6034C6.60502 14.0987 5.55172 13.627 4.73981 13.1771C3.9279 12.7273 3.23668 12.1128 2.65517 11.3339C2.07367 10.5549 1.7884 9.58934 1.7884 8.4373C1.7884 7.2304 2.10658 6.16614 2.75392 5.23354C3.40125 4.30094 4.32288 3.56583 5.54075 3.05015C6.74765 2.53448 8.17398 2.27116 9.81975 2.27116C11.0376 2.27116 12.1567 2.44671 13.1771 2.80878C14.1975 3.17084 15.0094 3.71943 15.6238 4.45454C16.2382 5.18965 16.5345 6.08934 16.5345 7.16457C16.5345 8.21786 16.3809 9.00783 16.0627 9.54545C15.7445 10.0831 15.2727 10.3464 14.6583 10.3464C14.2194 10.3464 13.8574 10.2147 13.5721 9.94043C13.2759 9.67711 13.1332 9.35893 13.1332 8.98589C13.1332 8.66771 13.1552 8.37147 13.21 8.10815C13.2649 7.60345 13.2868 7.28526 13.2868 7.1536C13.2868 6.45141 12.9467 5.91379 12.2555 5.55172C11.5752 5.18965 10.7194 5.00313 9.69906 5.00313C8.26176 5.00313 7.16458 5.26645 6.40752 5.7931C5.65047 6.31975 5.26646 7.05486 5.26646 8.0094C5.26646 8.64576 5.46395 9.18338 5.85893 9.6442C6.25392 10.094 6.73668 10.4671 7.32915 10.7743C7.91066 11.0705 8.73354 11.4326 9.78683 11.8495C11.0596 12.3652 12.0799 12.837 12.848 13.2539C13.616 13.6708 14.2743 14.2414 14.8119 14.9545C15.3495 15.6787 15.6238 16.5564 15.6238 17.6097C15.6238 19.5846 14.8777 21.0987 13.3856 22.163C11.8934 23.2273 9.88558 23.7539 7.38401 23.7539C5.12382 23.7649 3.34639 23.337 2.00784 22.5031Z" fill="#2B2D42"/>
<path d="M31.895 18.279C32.0157 18.4765 32.0815 18.7508 32.0815 19.1019C32.0815 19.7712 31.9279 20.2868 31.6097 20.6599C30.8417 21.5486 30.0517 22.2727 29.2398 22.8433C28.4279 23.4138 27.5063 23.6991 26.4749 23.6991C25.6191 23.6991 24.9828 23.4577 24.5439 22.964C24.105 22.4702 23.8966 21.7571 23.8966 20.8245C23.8966 20.3527 24.0172 19.5188 24.2477 18.3229C24.4671 17.2696 24.5768 16.5455 24.5768 16.1395C24.5768 15.8762 24.489 15.7335 24.3025 15.7335C24.0831 15.7335 23.7759 16.0188 23.3699 16.5784C22.964 17.1379 22.569 17.873 22.163 18.7947C21.7571 19.7163 21.4389 20.6818 21.1865 21.7022C20.8683 23.0408 20.0784 23.71 18.8276 23.71C18.3229 23.71 17.9937 23.5345 17.8401 23.1724C17.6865 22.8103 17.5987 22.163 17.5987 21.2304C17.5987 20.6928 17.6097 20.2649 17.6207 19.9467L17.6426 17.9389C17.6426 15.3605 17.906 12.6834 18.4326 9.89655C18.9592 7.10972 19.7382 4.76176 20.7586 2.86364C21.8009 0.943574 23.0298 0 24.4671 0C25.2351 0 25.8605 0.329154 26.3323 0.987461C26.8041 1.64577 27.0455 2.50157 27.0455 3.55486C27.0455 5.24451 26.5517 6.98903 25.5643 8.81034C24.5768 10.6207 22.9749 12.7382 20.7477 15.163C20.6928 16.0298 20.6708 16.9295 20.6708 17.8401C21.2194 16.4248 21.8339 15.2618 22.5141 14.373C23.1944 13.4843 23.8636 12.837 24.5219 12.453C25.1803 12.069 25.7837 11.8715 26.3433 11.8715C27.4295 11.8715 27.9781 12.4201 27.9781 13.5063C27.9781 14.1536 27.7915 15.3386 27.4295 17.0392C27.1113 18.4984 26.9577 19.453 26.9577 19.9248C26.9577 20.594 27.1991 20.9232 27.6818 20.9232C28.011 20.9232 28.4169 20.7147 28.8777 20.3088C29.3386 19.9028 29.953 19.2335 30.721 18.3119C30.9185 18.0815 31.1489 17.9608 31.4013 17.9608C31.5988 17.9718 31.7743 18.0705 31.895 18.279ZM22.942 3.77429C22.569 4.63009 22.2179 5.7931 21.8777 7.26332C21.5376 8.72257 21.2524 10.3135 21.0329 12.036C22.0643 10.8182 22.931 9.4906 23.6003 8.05329C24.2806 6.61599 24.6207 5.31034 24.6207 4.14734C24.6207 3.60972 24.5658 3.20376 24.4451 2.9185C24.3245 2.63323 24.1599 2.4906 23.9404 2.4906C23.6332 2.47962 23.3041 2.90752 22.942 3.77429Z" fill="#2B2D42"/>
<path d="M43.3386 16.1944C43.4593 16.4138 43.5141 16.6881 43.5141 17.0172C43.5141 17.8182 43.2728 18.3009 42.79 18.4436C41.7916 18.7947 40.6834 18.9922 39.4765 19.047C39.1583 20.4514 38.5329 21.5705 37.6003 22.4154C36.6677 23.2602 35.6035 23.6771 34.4185 23.6771C33.4201 23.6771 32.5643 23.4357 31.8511 22.953C31.138 22.4702 30.6003 21.8229 30.2383 21.0219C29.8652 20.221 29.6897 19.3542 29.6897 18.4107C29.6897 17.1379 29.9311 16.0078 30.4138 15.0094C30.8966 14.011 31.5659 13.2429 32.4217 12.6834C33.2775 12.1238 34.221 11.8386 35.2524 11.8386C36.5251 11.8386 37.5455 12.2774 38.3245 13.1552C39.1035 14.0329 39.5533 15.1191 39.696 16.4028C40.4859 16.348 41.4185 16.1834 42.5047 15.8981C42.6364 15.8652 42.7571 15.8433 42.8558 15.8433C43.0533 15.8652 43.2289 15.9749 43.3386 16.1944ZM36.0094 20.3746C36.4044 19.9357 36.6677 19.3103 36.7994 18.4984C36.2837 18.1473 35.8887 17.6865 35.6035 17.116C35.3292 16.5455 35.1866 15.942 35.1866 15.3056C35.1866 15.0423 35.2085 14.768 35.2634 14.5047H35.1427C34.4734 14.5047 33.9138 14.8229 33.475 15.4702C33.0361 16.1176 32.8057 17.0172 32.8057 18.1912C32.8057 19.1129 32.9812 19.815 33.3433 20.2978C33.7054 20.7806 34.1223 21.0219 34.605 21.0219C35.1536 21.0329 35.6145 20.8135 36.0094 20.3746Z" fill="#2B2D42"/>
<path d="M55.2649 18.279C55.3856 18.4765 55.4514 18.7508 55.4514 19.1019C55.4514 19.7712 55.2978 20.2868 54.9796 20.6599C54.2555 21.5486 53.4875 22.2727 52.6646 22.8433C51.8417 23.4138 50.8981 23.6991 49.8448 23.6991C48.9561 23.6991 48.243 23.3809 47.6944 22.7445C46.7398 23.3589 45.7524 23.6771 44.71 23.6991C44.4906 26.9248 43.9969 29.6238 43.2288 31.7853C42.4608 33.9467 41.3307 35.0329 39.8495 35.0329C38.9499 35.0329 38.2806 34.7038 37.8417 34.0564C37.4028 33.4091 37.1944 32.4984 37.1944 31.3464C37.1944 29.7116 37.5674 27.8025 38.3245 25.6191C39.0815 23.4357 40.2336 21.0329 41.8135 18.4107C41.8135 15.9749 41.7915 14.2743 41.7586 13.3198C41.7367 12.837 41.9342 12.453 42.3401 12.1677C42.7461 11.8824 43.2398 11.7398 43.8433 11.7398C44.1944 11.7398 44.4467 11.8056 44.6113 11.9483C44.7649 12.0909 44.8527 12.3652 44.8746 12.7931C44.8746 13.21 44.8856 13.5172 44.8966 13.7257C45.4342 13.0564 45.9608 12.5737 46.4765 12.2884C46.9922 11.9922 47.5408 11.8495 48.1332 11.8495C49.0658 11.8495 49.8339 12.2226 50.4263 12.9796C51.0188 13.7367 51.3151 14.7132 51.3151 15.942C51.3151 16.8307 51.1724 17.6865 50.8872 18.5204C50.6019 19.3542 50.2069 20.1113 49.7132 20.8025C50.0643 20.9013 50.3605 20.9561 50.5909 20.9561C51.1395 20.9561 51.6662 20.7586 52.1709 20.3527C52.6756 19.9467 53.3119 19.2884 54.1019 18.3448C54.2994 18.1144 54.5298 17.9937 54.7821 17.9937C54.9687 17.9718 55.1332 18.0705 55.2649 18.279ZM41.1552 29.6129C41.4514 27.6489 41.6489 25.2022 41.7367 22.2837C41.0125 23.9514 40.453 25.5533 40.0361 27.0674C39.6191 28.5925 39.4107 29.8652 39.4107 30.9075C39.4107 31.4451 39.4765 31.8511 39.5972 32.1364C39.7179 32.4216 39.8715 32.5643 40.0361 32.5643C40.4859 32.5643 40.8589 31.5768 41.1552 29.6129ZM46.4875 20.2868C46.9922 19.7602 47.3981 19.1129 47.7053 18.3339C48.0016 17.5549 48.1552 16.743 48.1552 15.8872C48.1552 15.3824 48.0564 15.0094 47.8589 14.7461C47.6615 14.4828 47.3872 14.3621 47.058 14.3621C46.4546 14.3621 45.7304 14.9984 44.8746 16.2712C44.8527 17.0063 44.8527 18.0815 44.8527 19.5078C44.8527 20.2759 44.8417 20.8683 44.8307 21.2853C45.4232 21.1536 45.9718 20.8135 46.4875 20.2868Z" fill="#2B2D42"/>
<path d="M54.1348 22.536C53.6411 21.768 53.3997 20.7476 53.3997 19.4749C53.3997 18.7179 53.4984 17.7523 53.685 16.5784C53.8715 15.4044 54.1238 14.2962 54.4201 13.2868C54.5737 12.7492 54.7712 12.3871 55.0235 12.1787C55.2759 11.9812 55.6708 11.8824 56.2304 11.8824C57.0862 11.8824 57.5141 12.1677 57.5141 12.7382C57.5141 13.1552 57.3495 14.1207 57.0423 15.6458C56.6364 17.489 56.4389 18.7288 56.4389 19.3762C56.4389 19.8809 56.5047 20.2649 56.6364 20.5282C56.768 20.7915 56.9984 20.9342 57.3166 20.9342C57.6129 20.9342 57.9969 20.7257 58.4467 20.3088C58.8966 19.8918 59.5 19.2335 60.2571 18.3338C60.4545 18.1034 60.685 17.9828 60.9373 17.9828C61.1567 17.9828 61.3213 18.0815 61.453 18.279C61.5737 18.4765 61.6395 18.7508 61.6395 19.1019C61.6395 19.7712 61.4859 20.2868 61.1677 20.6599C59.511 22.6787 57.964 23.6881 56.5266 23.6881C55.4185 23.6881 54.6285 23.3041 54.1348 22.536ZM55.1223 9.74294C54.7712 9.41379 54.5956 8.96395 54.5956 8.37147C54.5956 7.78997 54.826 7.29624 55.2868 6.90125C55.7476 6.50627 56.3182 6.30878 56.9984 6.30878C57.6129 6.30878 58.1176 6.46238 58.5016 6.75862C58.8856 7.05486 59.0831 7.48276 59.0831 8.04232C59.0831 8.7116 58.8636 9.23824 58.4357 9.63323C57.9969 10.0282 57.4263 10.2257 56.7022 10.2257C56 10.2257 55.4734 10.0611 55.1223 9.74294Z" fill="#53CD8B"/>
<path d="M71.2727 18.279C71.3934 18.4765 71.4592 18.7508 71.4592 19.1019C71.4592 19.7712 71.3056 20.2868 70.9875 20.6599C70.2633 21.5486 69.4843 22.2727 68.6285 22.8433C67.7727 23.4138 66.7962 23.6991 65.6991 23.6991C62.2868 23.6991 60.5862 21.2962 60.5862 16.5016C60.5862 15.7665 60.6082 15.0204 60.663 14.2743H59.6865C59.1818 14.2743 58.8417 14.1865 58.6661 14C58.4906 13.8135 58.4028 13.5282 58.4028 13.1223C58.4028 12.1897 58.7759 11.7179 59.5329 11.7179H60.9592C61.2445 9.87461 61.6724 8.19592 62.2649 6.68182C62.8464 5.15674 63.5596 3.94984 64.3824 3.05016C65.2053 2.15047 66.105 1.70063 67.0486 1.70063C67.7508 1.70063 68.2994 2.00784 68.7053 2.63323C69.1113 3.24765 69.3088 4.02665 69.3088 4.95925C69.3088 7.54859 68.2226 9.80878 66.0502 11.7288H68.8589C69.1223 11.7288 69.3198 11.7837 69.4404 11.9044C69.5611 12.0251 69.616 12.2335 69.616 12.5517C69.616 13.7038 68.6724 14.2853 66.7853 14.2853H63.7241C63.6912 15.1191 63.6693 15.7774 63.6693 16.2382C63.6693 17.9718 63.8777 19.2006 64.2837 19.9028C64.6897 20.605 65.337 20.9561 66.2257 20.9561C66.9389 20.9561 67.5752 20.7367 68.1348 20.3088C68.6834 19.8699 69.3417 19.2226 70.0878 18.3558C70.2853 18.1254 70.5157 18.0047 70.768 18.0047C70.9765 17.9718 71.152 18.0705 71.2727 18.279ZM65.5345 5.02508C65.2273 5.65047 64.931 6.51724 64.6567 7.63636C64.3824 8.74451 64.152 9.98433 63.9655 11.3339C64.953 10.4781 65.6881 9.52351 66.1818 8.45925C66.6755 7.39498 66.9169 6.42947 66.9169 5.5627C66.9169 4.57523 66.7304 4.0815 66.3683 4.0815C66.127 4.0815 65.8417 4.39969 65.5345 5.02508Z" fill="#DADADC"/>
<path d="M70 22.558C69.4075 21.8009 69.1113 20.8244 69.1113 19.5956C69.1113 18.257 69.4185 16.9953 70.0439 15.7994C70.6583 14.6034 71.4812 13.6489 72.5125 12.9138C73.5439 12.1897 74.6301 11.8276 75.7821 11.8276C76.1442 11.8276 76.3966 11.8934 76.5172 12.0361C76.6379 12.1787 76.7476 12.431 76.8354 12.8041C77.1536 12.7382 77.5047 12.7053 77.8887 12.7053C78.2947 12.7053 78.6019 12.8041 78.8213 13.0016C79.0407 13.1991 79.1505 13.4843 79.1505 13.8574C79.1505 14.2414 79.0627 14.9107 78.8981 15.8652C78.7116 16.8856 78.569 17.8621 78.4702 18.7837C78.3715 19.7163 78.3166 20.7476 78.3166 21.8997C78.3166 22.536 78.1849 22.9859 77.9326 23.2712C77.6693 23.5454 77.2523 23.6881 76.6708 23.6881C76.1003 23.6881 75.6834 23.5454 75.4091 23.2712C75.1348 22.9969 74.9922 22.547 74.9922 21.9326L75.0141 21.5266C74.4984 22.9639 73.5987 23.6771 72.337 23.6771C71.3605 23.6881 70.5925 23.315 70 22.558ZM74.5752 20.1771C74.9592 19.5298 75.2994 18.3668 75.6066 16.6881L76.0784 14.1536C75.3981 14.1755 74.7618 14.4389 74.1693 14.9436C73.5878 15.4483 73.116 16.1285 72.7649 16.9624C72.4138 17.7962 72.2383 18.6849 72.2383 19.6175C72.2383 20.1223 72.337 20.4953 72.5235 20.7586C72.71 21.0219 72.9734 21.1426 73.2915 21.1426C73.7633 21.1536 74.1912 20.8354 74.5752 20.1771Z" fill="#E65F76"/>
<path d="M80.9827 23.0846C80.6097 22.6787 80.4232 22.152 80.4232 21.5047C80.4232 20.7477 80.6317 20.1552 81.0596 19.6944C81.4875 19.2445 82.0799 19.0141 82.848 19.0141C83.5831 19.0141 84.1426 19.1897 84.5157 19.5517C84.8887 19.9138 85.0752 20.4404 85.0752 21.1426C85.0752 21.9107 84.8558 22.5251 84.4279 22.9859C83.989 23.4467 83.3965 23.6771 82.6505 23.6771C81.9044 23.6881 81.3558 23.4906 80.9827 23.0846Z" fill="#2B2D42"/>
<path d="M101.862 18.279C101.983 18.4765 102.049 18.7508 102.049 19.1019C102.049 19.7712 101.884 20.2868 101.577 20.6599C100.82 21.5815 100.063 22.3166 99.2946 22.8652C98.5266 23.4138 97.6159 23.6881 96.5626 23.6881C95.2789 23.6881 94.2366 23.326 93.4576 22.5799C92.6677 21.8448 92.2836 20.8683 92.2836 19.6505C92.2836 19.0031 92.6128 18.5313 93.2821 18.2461C94.0172 17.9279 94.5438 17.5878 94.862 17.2257C95.1802 16.8636 95.3338 16.4248 95.3338 15.9091C95.3338 15.6128 95.268 15.3824 95.1473 15.2288C95.0266 15.0752 94.862 14.9984 94.6865 14.9984C94.2366 14.9984 93.7429 15.3276 93.1943 15.9749C92.6457 16.6223 92.141 17.4671 91.6802 18.4984C91.2084 19.5298 90.8463 20.5831 90.572 21.6693C90.3855 22.4592 90.1771 22.9859 89.9357 23.2602C89.6943 23.5345 89.3103 23.6771 88.7946 23.6771C88.2789 23.6771 87.8949 23.4906 87.6535 23.1175C87.4122 22.7445 87.2476 22.163 87.1598 21.373C87.072 20.5831 87.0391 19.431 87.0391 17.9169C87.0391 15.3386 87.3024 12.6614 87.8291 9.8746C88.3557 7.08777 89.1347 4.73981 90.1551 2.84169C91.1755 0.943573 92.4153 0 93.8526 0C94.6206 0 95.246 0.329153 95.7178 0.98746C96.1896 1.64577 96.431 2.50157 96.431 3.55486C96.431 5.24451 95.9373 6.98903 94.9498 8.81034C93.9623 10.6207 92.3604 12.7382 90.1332 15.163C90.0783 16.0298 90.0564 16.9295 90.0564 17.8401C90.8573 15.7555 91.7789 14.2304 92.8103 13.2868C93.8416 12.3433 94.8181 11.8715 95.7178 11.8715C96.5517 11.8715 97.2209 12.1567 97.7366 12.7273C98.2413 13.2978 98.5046 14 98.5046 14.8338C98.5046 15.7555 98.2742 16.6003 97.8025 17.3683C97.3307 18.1364 96.5297 18.8276 95.3996 19.4201C95.4655 19.8699 95.6739 20.232 96.0141 20.5063C96.3542 20.7806 96.7711 20.9232 97.2539 20.9232C97.7695 20.9232 98.2742 20.7257 98.757 20.3197C99.2398 19.9138 99.8761 19.2555 100.666 18.3119C100.864 18.0815 101.094 17.9608 101.346 17.9608C101.566 17.9718 101.73 18.0705 101.862 18.279ZM92.3166 3.77429C91.9435 4.63009 91.5924 5.7931 91.2523 7.26332C90.9122 8.72257 90.6269 10.3135 90.4075 12.036C91.4388 10.8182 92.2946 9.49059 92.9749 8.05329C93.6551 6.61598 93.9952 5.31034 93.9952 4.14733C93.9952 3.60972 93.9404 3.20376 93.8197 2.91849C93.699 2.63323 93.5344 2.49059 93.315 2.49059C93.0188 2.47962 92.6896 2.90752 92.3166 3.77429Z" fill="#2B2D42"/>
<path d="M109.433 21.2194C109.619 21.4937 109.718 21.8339 109.718 22.2398C109.718 22.6567 109.619 23.0298 109.433 23.348C109.235 23.6661 108.972 23.8197 108.643 23.8197C108.039 23.8197 107.48 23.8088 106.953 23.7978C106.426 23.7759 105.966 23.7649 105.56 23.7429C104.024 23.6771 102.937 23.6442 102.301 23.6442C102.082 23.6442 101.763 23.721 101.346 23.8746C100.809 24.0392 100.447 24.127 100.238 24.127C99.3495 24.127 98.9107 23.5564 98.9107 22.4263C98.9107 21.6583 99.185 20.7806 99.7336 19.8041C100.282 18.8276 101.006 17.873 101.884 16.9624C102.773 16.0408 103.694 15.2727 104.638 14.6583L101.105 14.7571C100.732 14.779 100.458 14.6473 100.26 14.373C100.063 14.0987 99.9749 13.7696 99.9749 13.3856C99.9749 12.9796 100.074 12.6285 100.26 12.3213C100.447 12.0141 100.71 11.8605 101.05 11.8605C101.785 11.8605 102.696 11.9154 103.782 12.036C103.969 12.058 104.364 12.0909 104.978 12.1348C105.592 12.1897 106.152 12.2116 106.668 12.2116C106.832 12.2116 107.15 12.1458 107.622 12.0141C107.71 11.9922 107.864 11.9592 108.116 11.8934C108.357 11.8276 108.566 11.7947 108.73 11.7947C108.994 11.7947 109.224 11.9154 109.4 12.1458C109.575 12.3762 109.663 12.7382 109.663 13.221C109.663 13.7586 109.531 14.1865 109.279 14.5047C109.016 14.8229 108.632 15.1081 108.116 15.3605C107.535 15.6238 106.843 16.0846 106.064 16.7429C105.274 17.3903 104.539 18.1144 103.837 18.9154C103.135 19.7053 102.619 20.4624 102.279 21.1536L108.599 20.8793C108.961 20.8135 109.235 20.9451 109.433 21.2194Z" fill="#2B2D42"/>
</g>
<defs>
<clipPath id="clip0">
<rect width="109.718" height="35" fill="white"/>
</clipPath>
</defs>
</svg>
