<svg width="40" height="20" viewBox="0 0 40 20" fill="none" xmlns="http://www.w3.org/2000/svg">
<rect width="40" height="20" fill="#5FC6E6"/>
<path d="M13.604 14H11.276L7.856 8.444H7.82L7.868 14H5.876V5.504H8.216L11.624 11.048H11.66L11.612 5.504H13.604V14ZM21.2845 14H15.3565V5.504H21.0685V7.244H17.3365V8.84H20.8645V10.484H17.3365V12.248H21.2845V14ZM34.0695 5.504L31.6455 14H29.6175L27.9375 8.252H27.9015L26.2215 14H24.1815L21.7695 5.504H23.9775L25.3215 11.156H25.3575L26.8695 5.504H29.0055L30.5295 11.156H30.5655L31.9335 5.504H34.0695Z" fill="white"/>
</svg>
