<svg width="95" height="48" viewBox="0 0 95 48" fill="none" xmlns="http://www.w3.org/2000/svg">
<path fill-rule="evenodd" clip-rule="evenodd" d="M19.812 17.2918L17.6121 30.8113H21.1317L23.3318 17.2918H19.812ZM14.6509 17.2918L11.2952 26.5904L10.8982 24.5881L10.8985 24.5887L10.8111 24.1399C10.4049 23.2647 9.46433 21.6012 7.68824 20.1815C7.16315 19.7619 6.63383 19.4038 6.12215 19.0979L9.17193 30.8113H12.8391L18.439 17.2918H14.6509ZM28.3872 21.0451C28.3872 19.5166 31.815 19.713 33.3212 20.5429L33.8234 17.6393C33.8234 17.6393 32.2733 17.0498 30.6576 17.0498C28.9109 17.0498 24.7631 17.8137 24.7631 21.5253C24.7631 25.0185 29.6314 25.0619 29.6314 26.8958C29.6314 28.7298 25.2651 28.402 23.8241 27.2451L23.3004 30.2801C23.3004 30.2801 24.872 31.044 27.2737 31.044C29.6752 31.044 33.2992 29.7998 33.2992 26.4155C33.2992 22.9006 28.3872 22.5732 28.3872 21.0451ZM42.7497 17.2918H39.9199C38.6132 17.2918 38.295 18.2993 38.295 18.2993L33.0461 30.8113H36.7146L37.4485 28.8033H41.923L42.3358 30.8113H45.5676L42.7497 17.2918ZM38.4628 26.0289L40.3123 20.9696L41.3527 26.0289H38.4628Z" fill="#005BAC"/>
<path fill-rule="evenodd" clip-rule="evenodd" d="M9.76239 18.5644C9.76239 18.5644 9.6167 17.3442 8.06139 17.3442H2.41079L2.3446 17.5736C2.3446 17.5736 5.06073 18.1272 7.66651 20.2016C10.1567 22.1843 10.969 24.6557 10.969 24.6557L9.76239 18.5644Z" fill="#F6AC1D"/>
<g clip-path="url(#clip0)">
<path d="M94.9293 24.0172C94.9293 30.3371 89.8177 35.4566 83.5138 35.4566C77.2098 35.4566 72.0983 30.3371 72.0983 24.0172C72.0983 17.6974 77.2018 12.5779 83.5058 12.5779C89.8098 12.5779 94.9293 17.6974 94.9293 24.0172Z" fill="#F79F1A"/>
<path d="M80.8348 24.0172C80.8348 30.3371 75.7232 35.4566 69.4193 35.4566C63.1153 35.4566 58.0038 30.3371 58.0038 24.0172C58.0038 17.6974 63.1153 12.5779 69.4193 12.5779C75.7232 12.5779 80.8348 17.6974 80.8348 24.0172Z" fill="#EA001B"/>
<path d="M76.4625 15.0105C73.7994 17.1012 72.0903 20.3605 72.0903 24.0173C72.0903 27.6741 73.7994 30.9334 76.4625 33.0241C79.1256 30.9334 80.8348 27.6741 80.8348 24.0173C80.8348 20.3605 79.1256 17.1092 76.4625 15.0105Z" fill="#FF5F01"/>
<path d="M94.9011 30.092V29.6881H94.8001L94.6789 29.9709L94.5577 29.678H94.4466V30.0819H94.5173V29.779L94.6284 30.0416H94.7092L94.8304 29.779V30.092H94.9011ZM94.2244 30.092V29.7487H94.3658V29.678H94.0224V29.7487H94.1638V30.092H94.2244Z" fill="#F79F1A"/>
</g>
<defs>
<clipPath id="clip0">
<rect x="58" y="12" width="36.9256" height="24" fill="white"/>
</clipPath>
</defs>
</svg>
