<svg width="45" height="20" viewBox="0 0 45 20" fill="none" xmlns="http://www.w3.org/2000/svg">
<rect width="45" height="20" fill="#E6A85F"/>
<path d="M14.672 6.332L13.364 7.712C13.196 7.496 12.968 7.32 12.68 7.184C12.4 7.048 12.124 6.98 11.852 6.98C11.532 6.98 11.252 7.048 11.012 7.184C10.78 7.312 10.664 7.528 10.664 7.832C10.664 7.968 10.692 8.088 10.748 8.192C10.804 8.288 10.896 8.376 11.024 8.456C11.16 8.528 11.292 8.592 11.42 8.648C11.548 8.696 11.732 8.756 11.972 8.828C12.284 8.932 12.528 9.016 12.704 9.08C12.88 9.144 13.104 9.252 13.376 9.404C13.656 9.548 13.872 9.7 14.024 9.86C14.176 10.02 14.312 10.236 14.432 10.508C14.552 10.772 14.612 11.064 14.612 11.384C14.612 12.304 14.296 13.008 13.664 13.496C13.04 13.976 12.272 14.216 11.36 14.216C10.744 14.216 10.152 14.108 9.584 13.892C9.016 13.676 8.548 13.376 8.18 12.992L9.524 11.624C9.732 11.888 10.004 12.104 10.34 12.272C10.684 12.44 11.024 12.524 11.36 12.524C11.704 12.524 11.984 12.452 12.2 12.308C12.424 12.156 12.536 11.92 12.536 11.6C12.536 11.472 12.504 11.36 12.44 11.264C12.384 11.16 12.32 11.076 12.248 11.012C12.176 10.94 12.048 10.864 11.864 10.784C11.68 10.704 11.524 10.644 11.396 10.604C11.268 10.556 11.06 10.484 10.772 10.388C10.46 10.284 10.192 10.176 9.968 10.064C9.744 9.952 9.52 9.804 9.296 9.62C9.072 9.436 8.9 9.204 8.78 8.924C8.66 8.644 8.6 8.32 8.6 7.952C8.6 7.504 8.696 7.104 8.888 6.752C9.08 6.392 9.336 6.112 9.656 5.912C9.976 5.704 10.324 5.548 10.7 5.444C11.084 5.34 11.48 5.288 11.888 5.288C12.384 5.288 12.88 5.38 13.376 5.564C13.88 5.74 14.312 5.996 14.672 6.332ZM24.0058 14H21.7258L21.0658 12.332H17.7778L17.1538 14H14.9218L18.4858 5.504H20.4778L24.0058 14ZM20.5018 10.688L19.4458 7.772L18.3658 10.688H20.5018ZM30.06 14H24.708V5.504H26.772V12.212H30.06V14ZM36.9524 14H31.0244V5.504H36.7364V7.244H33.0044V8.84H36.5324V10.484H33.0044V12.248H36.9524V14Z" fill="white"/>
</svg>
