<svg width="24" height="24" viewBox="0 0 24 24" fill="none" xmlns="http://www.w3.org/2000/svg">
<path d="M24 18.6141C24 21.5906 21.5859 24 18.6141 24H5.38594C2.41406 24 0 21.5859 0 18.6141V5.38594C0 2.41406 2.41406 0 5.38594 0H18.6141C21.5859 0 24 2.41406 24 5.38594V18.6141Z" fill="#678AAF"/>
<path d="M11.8359 16.3781H12.7594C12.7594 16.3781 13.0406 16.3453 13.1812 16.1953C13.3125 16.0547 13.3078 15.7875 13.3078 15.7875C13.3078 15.7875 13.289 14.5453 13.8656 14.3625C14.4328 14.1797 15.164 15.5625 15.9375 16.0922C16.5234 16.4953 16.9687 16.4063 16.9687 16.4063L19.0359 16.3781C19.0359 16.3781 20.1187 16.3125 19.6031 15.4594C19.5609 15.3891 19.3031 14.8313 18.0656 13.6828C16.7719 12.4828 16.9453 12.675 18.5062 10.5938C19.4578 9.32816 19.8375 8.55472 19.7203 8.22191C19.6078 7.90785 18.9094 7.99222 18.9094 7.99222L16.5797 8.00629C16.5797 8.00629 16.4062 7.98285 16.2797 8.05785C16.1531 8.13285 16.0734 8.30628 16.0734 8.30628C16.0734 8.30628 15.7031 9.28597 15.2109 10.1203C14.175 11.8828 13.7625 11.9719 13.589 11.8641C13.1953 11.6063 13.2937 10.8422 13.2937 10.2938C13.2937 8.58753 13.5515 7.87972 12.7875 7.69222C12.5344 7.63129 12.3469 7.5891 11.7 7.58441C10.8703 7.57504 10.1672 7.5891 9.76874 7.78129C9.50624 7.91254 9.29999 8.19847 9.42186 8.21722C9.57655 8.23597 9.92342 8.31097 10.1109 8.5641C10.35 8.88753 10.3406 9.61878 10.3406 9.61878C10.3406 9.61878 10.4765 11.625 10.0219 11.8782C9.7078 12.0516 9.27655 11.7 8.35311 10.1016C7.87967 9.28597 7.52342 8.38128 7.52342 8.38128C7.52342 8.38128 7.45311 8.21254 7.33124 8.12347C7.18124 8.01566 6.97499 7.97816 6.97499 7.97816L4.76249 7.99222C4.76249 7.99222 4.42967 8.0016 4.3078 8.14691C4.19999 8.27347 4.29842 8.54066 4.29842 8.54066C4.29842 8.54066 6.02811 12.5907 7.99217 14.6344C9.79217 16.5 11.8359 16.3781 11.8359 16.3781Z" fill="white"/>
</svg>
