<svg width="24" height="24" viewBox="0 0 24 24" fill="none" xmlns="http://www.w3.org/2000/svg">
<path d="M24 18.5203C24 21.5484 21.5484 24 18.5203 24H5.47969C2.45156 24 0 21.5484 0 18.5203V5.48438C0 2.45625 2.45625 0 5.48438 0H18.4359C21.5109 0 24 2.48906 24 5.56406V18.5203Z" fill="url(#paint0_radial)"/>
<path d="M15.3375 3.30933H8.6625C5.70469 3.30933 3.30469 5.70933 3.30469 8.66714V15.3375C3.30469 18.2953 5.7 20.6906 8.6625 20.6906H15.3328C18.2906 20.6906 20.6859 18.2953 20.6859 15.3375V8.66714C20.6906 5.70464 18.2953 3.30933 15.3375 3.30933ZM19.0219 14.6953C19.0219 17.0859 17.0859 19.0218 14.6953 19.0218H9.30469C6.91406 19.0218 4.97812 17.0859 4.97812 14.6953V9.30464C4.97812 6.91401 6.91406 4.97808 9.30469 4.97808H14.6953C17.0859 4.97808 19.0219 6.9187 19.0219 9.30464V14.6953Z" fill="white"/>
<path d="M12.2344 7.45312C9.7031 7.45312 7.65466 9.50156 7.65466 12.0328C7.65466 14.5594 9.7031 16.6125 12.2344 16.6125C14.7609 16.6125 16.814 14.5641 16.814 12.0328C16.8094 9.50156 14.7609 7.45312 12.2344 7.45312ZM12.2344 14.7844C10.7109 14.7844 9.4781 13.5516 9.4781 12.0281C9.4781 10.5047 10.7109 9.27188 12.2344 9.27188C13.7531 9.27188 14.9906 10.5047 14.9906 12.0281C14.9859 13.5516 13.7531 14.7844 12.2344 14.7844Z" fill="white"/>
<path d="M17.6578 7.38276C17.6578 8.02495 17.1375 8.54526 16.4953 8.54526C15.8531 8.54526 15.3328 8.02495 15.3328 7.38276C15.3328 6.74058 15.8531 6.21558 16.4953 6.21558C17.1375 6.21558 17.6578 6.73589 17.6578 7.38276Z" fill="white"/>
<defs>
<radialGradient id="paint0_radial" cx="0" cy="0" r="1" gradientUnits="userSpaceOnUse" gradientTransform="translate(7.02977 25.8581) scale(31.8036 31.8027)">
<stop offset="0.0969388" stop-color="#FFD87A"/>
<stop offset="0.1426" stop-color="#FCCE78"/>
<stop offset="0.2263" stop-color="#F5B471"/>
<stop offset="0.3378" stop-color="#EB8D65"/>
<stop offset="0.449" stop-color="#E36058"/>
<stop offset="0.6786" stop-color="#CD3694"/>
<stop offset="1" stop-color="#6668B0"/>
</radialGradient>
</defs>
</svg>
