<svg width="24" height="24" viewBox="0 0 24 24" fill="none" xmlns="http://www.w3.org/2000/svg">
<path d="M24 18.6141C24 21.5906 21.5859 24 18.6141 24H5.38594C2.41406 24 0 21.5859 0 18.6141V5.38594C0 2.41406 2.41406 0 5.38594 0H18.6141C21.5859 0 24 2.41406 24 5.38594V18.6141Z" fill="#4F76BB"/>
<path fill-rule="evenodd" clip-rule="evenodd" d="M14.0156 7.72036C14.4187 7.7063 14.8218 7.71568 15.2249 7.71568C15.2718 7.71568 15.3234 7.71568 15.389 7.71568V5.62036C15.1734 5.59693 14.9484 5.5688 14.7234 5.55943C14.3109 5.54068 13.8984 5.52193 13.4812 5.5313C12.8484 5.54536 12.2531 5.70005 11.7328 6.07036C11.1328 6.50161 10.8046 7.1063 10.6828 7.8188C10.6312 8.11411 10.6171 8.4188 10.6078 8.7188C10.5984 9.18755 10.6078 9.6563 10.6078 10.1297V10.3079H8.6062V12.6469H10.5984V18.5251H13.0312V12.6516H15.0187C15.1218 11.8735 15.2203 11.1047 15.3234 10.3032C15.164 10.3032 15.0187 10.3032 14.8781 10.3032C14.3109 10.3079 13.0171 10.3032 13.0171 10.3032C13.0171 10.3032 13.0218 9.14536 13.0359 8.63911C13.0546 7.95005 13.4671 7.73911 14.0156 7.72036Z" fill="white"/>
</svg>
